<svg width="82" height="96" viewBox="0 0 82 96" fill="none" xmlns="http://www.w3.org/2000/svg">
<g clip-path="url(#clip0_117_206)">
<path d="M77.23 24.4402C82.1 40.0802 78.31 52.4202 76.49 67.3202H6.63997C5.68997 60.0802 6.75997 61.4702 4.69997 51.8802C2.81997 43.1702 2.47997 19.7602 9.01997 13.8002C6.80997 8.31024 8.48997 4.11023 10.23 0.240234C20.42 0.650234 37.53 1.98023 57.67 6.49023C66.91 8.56023 74.42 15.4002 77.24 24.4402H77.23Z" fill="#27272A"/>
<path d="M47.23 96.1302H35.92C24.67 96.1302 14.9 88.3802 12.34 77.4202L6.18996 51.0502C0.999957 28.7402 17 13.5602 39.87 12.5302C40.44 12.5002 41.01 12.4902 41.58 12.4902C42.15 12.4902 42.72 12.5002 43.29 12.5302C66.17 13.5602 82.16 28.7402 76.96 51.0402L70.81 77.4102C68.25 88.3702 58.49 96.1202 47.23 96.1202V96.1302Z" fill="#FF9F82"/>
<path d="M57.1897 35.4699C51.7997 34.0399 48.4297 34.6499 45.5797 35.3099C42.7597 35.9599 40.6097 36.6099 37.4197 35.4799C30.3697 32.9899 27.1097 35.0699 23.7997 35.4499C23.4697 35.4899 23.2297 35.7899 23.2697 36.1199C23.3097 36.4499 23.6097 36.6899 23.9397 36.6499C27.6397 36.2199 30.3097 34.2599 37.0097 36.6199C40.5697 37.8799 43.0697 37.1299 45.8397 36.4899C48.5797 35.8599 51.7397 35.2799 56.8697 36.6399C57.1897 36.7299 57.5297 36.5299 57.6097 36.2099C57.6997 35.8899 57.4997 35.5499 57.1797 35.4699H57.1897Z" fill="#FF6A4F"/>
<path d="M23.9397 31C27.6397 30.57 30.3097 28.61 37.0097 30.97C38.7297 31.58 40.0797 31.89 41.3297 32.01C42.5897 32.13 43.7297 32.05 45.0097 31.9C47.5697 31.6 50.7897 31.01 57.0197 31.01C57.3597 31.01 57.6297 30.74 57.6297 30.4C57.6297 30.06 57.3597 29.79 57.0197 29.79C50.7097 29.79 47.3997 30.39 44.8697 30.69C43.6097 30.84 42.5697 30.91 41.4397 30.8C40.3097 30.69 39.0597 30.41 37.4097 29.83C30.3597 27.34 27.0997 29.42 23.7897 29.8C23.4597 29.84 23.2197 30.14 23.2597 30.47C23.2997 30.8 23.5997 31.04 23.9297 31H23.9397Z" fill="#FF6A4F"/>
<path d="M26.7597 52.9501C21.8497 52.0401 17.1197 54.8701 15.4897 59.4301C15.1897 60.2601 15.7797 61.1101 16.6497 61.2701L33.2097 64.3401C34.0797 64.5001 34.9297 63.9201 34.9497 63.0401C35.0697 58.2001 31.6597 53.8601 26.7597 52.9501Z" fill="white"/>
<path d="M30.2997 64.2699C32.9562 64.2699 35.1097 62.1164 35.1097 59.4599C35.1097 56.8034 32.9562 54.6499 30.2997 54.6499C27.6433 54.6499 25.4897 56.8034 25.4897 59.4599C25.4897 62.1164 27.6433 64.2699 30.2997 64.2699Z" fill="#18181B"/>
<path d="M33.1498 64.4498C32.1498 65.3298 28.6998 67.1498 23.2598 66.9198L23.2298 67.7198C28.8498 67.9598 32.5098 66.0798 33.6798 65.0498L33.1498 64.4498ZM23.2598 66.9198C23.0398 66.9198 22.8498 67.0798 22.8398 67.2998C22.8298 67.5198 22.9998 67.7098 23.2198 67.7198L23.2498 66.9198H23.2598ZM33.6798 65.0498C33.8498 64.8998 33.8598 64.6498 33.7198 64.4798C33.5698 64.3098 33.3198 64.2998 33.1498 64.4398L33.6798 65.0398V65.0498Z" fill="#FF6A4F"/>
<path d="M42.3796 87.8703C38.1396 87.8703 34.6596 85.0203 32.5796 82.4403C31.5196 81.1303 32.5196 79.1703 34.1996 79.2203L41.5296 79.4303L49.9896 79.2103C51.8596 79.1603 52.9096 81.3403 51.7096 82.7803C49.6396 85.2603 46.4196 87.8603 42.3796 87.8603V87.8703Z" fill="white"/>
<path d="M46.7897 90.0801C45.6597 90.7101 42.0197 91.6901 37.0497 90.0801L36.7897 90.8801C41.9497 92.5501 45.8397 91.5701 47.1997 90.8101L46.7897 90.0701V90.0801ZM37.0497 90.0901C36.8297 90.0201 36.5897 90.1401 36.5197 90.3601C36.4497 90.5801 36.5697 90.8201 36.7897 90.8901L37.0497 90.0901ZM47.1997 90.8201C47.3997 90.7101 47.4797 90.4501 47.3597 90.2501C47.2397 90.0501 46.9897 89.9701 46.7897 90.0901L47.1997 90.8301V90.8201Z" fill="#FF6A4F"/>
<path d="M47.3797 72.3701H36.4797C28.5697 72.3701 22.1597 77.2901 22.1597 83.3701C22.1597 83.4801 22.1897 83.5901 22.2397 83.6901C22.2897 83.7901 22.3797 83.8901 22.4797 83.9701C22.5797 84.0501 22.7097 84.1101 22.8397 84.1601C22.9697 84.2101 23.1197 84.2301 23.2697 84.2301H31.2097C35.6797 84.2301 39.5297 82.5301 41.9397 79.9301C44.3397 82.5301 48.1997 84.2301 52.6697 84.2301H60.6097C60.7597 84.2301 60.8997 84.2101 61.0397 84.1601C61.1797 84.1101 61.2997 84.0501 61.3997 83.9701C61.4997 83.8901 61.5797 83.8001 61.6397 83.6901C61.6897 83.5901 61.7197 83.4801 61.7197 83.3701C61.7197 77.3001 55.2997 72.3701 47.3897 72.3701H47.3797Z" fill="#27272A"/>
<path d="M49.1496 71.5601C49.1496 75.2501 46.1096 76.5101 42.3596 76.5101C38.6096 76.5101 35.5696 75.2501 35.5696 71.5601C35.5696 67.8701 38.6096 64.8701 42.3596 64.8701C46.1096 64.8701 49.1496 67.8601 49.1496 71.5601Z" fill="#FF8282"/>
<path d="M72.7999 57.8302C69.0699 61.2402 67.9499 69.7902 72.1199 72.6602C76.5499 75.7102 81.4599 68.9302 81.8999 59.2402C82.1299 54.1902 77.4899 53.5402 72.7999 57.8302ZM74.0899 71.1602C73.8299 71.1502 73.6199 70.9202 73.6399 70.6602C73.6599 70.4002 73.8799 70.1902 74.1399 70.2102C74.3999 70.2302 74.6099 70.4502 74.5899 70.7102C74.5699 70.9702 74.3499 71.1802 74.0899 71.1602Z" fill="#FF9F82"/>
<path d="M73.0999 67.5902C73.0999 67.5902 75.9998 65.4102 75.6098 64.3002C75.2198 63.1902 74.1799 60.0702 77.7999 59.4302" stroke="#FF6A4F" stroke-miterlimit="10" stroke-linecap="round"/>
<path d="M74.17 69.4803C73.5 69.4503 72.9399 69.9603 72.9099 70.6303C72.8799 71.3003 73.39 71.8603 74.06 71.8903C74.73 71.9203 75.29 71.4103 75.32 70.7403C75.35 70.0703 74.84 69.5103 74.17 69.4803ZM74.0899 71.1603C73.8299 71.1503 73.62 70.9203 73.64 70.6603C73.66 70.4003 73.88 70.1903 74.14 70.2103C74.4 70.2303 74.6099 70.4503 74.5899 70.7103C74.5699 70.9703 74.3499 71.1803 74.0899 71.1603Z" fill="#27272A"/>
<path d="M0.0898438 59.0002C0.0898438 68.7002 4.67984 75.7003 9.24984 72.8503C13.5398 70.1803 12.8198 61.5903 9.24984 58.0103C4.74984 53.5003 0.0898438 53.9402 0.0898438 59.0002Z" fill="#FF9F82"/>
<path d="M8.49994 67.7404C8.49994 67.7404 5.69994 65.4304 6.14994 64.3404C6.59994 63.2504 7.77994 60.1804 4.18994 59.3804" stroke="#FF6A4F" stroke-miterlimit="10" stroke-linecap="round"/>
<path d="M57.2601 51.9902C52.2201 52.2402 48.2101 56.1302 47.6801 60.9902C47.5801 61.8802 48.3601 62.5702 49.2501 62.5302C54.7801 64.0502 60.6501 63.7902 66.0201 61.7902L66.2601 61.7002C67.1501 61.6602 67.8601 60.8902 67.6701 60.0102C66.6601 55.2202 62.3001 51.7402 57.2601 51.9902Z" fill="white"/>
<path d="M52.8099 63.6599C55.4996 63.6599 57.6799 61.4795 57.6799 58.7899C57.6799 56.1003 55.4996 53.9199 52.8099 53.9199C50.1203 53.9199 47.9399 56.1003 47.9399 58.7899C47.9399 61.4795 50.1203 63.6599 52.8099 63.6599Z" fill="#18181B"/>
<path d="M65.3599 51.3602C66.6999 47.9802 65.0399 44.1603 61.6599 42.8203L50.9499 38.5802C48.9799 37.8002 46.7499 38.7702 45.9699 40.7402C45.1899 42.7102 46.1599 44.9402 48.1299 45.7202L63.9399 51.9702C64.4999 52.1902 65.1399 51.9202 65.3599 51.3503V51.3602Z" fill="#27272A"/>
<path d="M14.07 51.5498C13.91 47.9298 16.72 44.8598 20.34 44.6898L31.63 44.1698C33.53 44.0798 35.36 45.2798 35.77 47.1298C36.3 49.5298 34.55 51.7198 32.2 51.8298L15.25 52.6198C14.63 52.6498 14.09 52.1798 14.07 51.5598V51.5498Z" fill="#27272A"/>
<path d="M58.0299 65.7899C56.7999 66.0199 53.1899 65.7899 49.1499 62.8099L48.6699 63.4599C52.8599 66.5699 56.7099 66.8599 58.1799 66.5899L58.0299 65.7899ZM49.1499 62.8099C48.9699 62.6799 48.7199 62.7099 48.5799 62.8899C48.4499 63.0699 48.4799 63.3199 48.6599 63.4599L49.1399 62.8099H49.1499ZM58.1699 66.5899C58.3899 66.5499 58.5399 66.3399 58.4899 66.1199C58.4399 65.8999 58.2399 65.7499 58.0199 65.7999L58.1699 66.5999V66.5899Z" fill="#FF6A4F"/>
<path d="M41.39 9.76976C7.43 9.76976 -1.52 26.9098 7.72 63.8198C7.84 64.2998 8.32 64.6498 8.83 64.5698C12.67 63.9698 9.26 59.4998 10.52 55.1798C11.06 53.3298 10.88 51.3598 10.2 49.5498C2.67 29.4898 23.27 20.4598 35.74 24.6398C39.42 25.8698 43.36 25.8698 47.04 24.6398C59.51 20.4598 80.1 29.4898 72.58 49.5498C71.87 51.4298 71.83 53.4598 72.32 55.4098C73.42 59.7698 70.01 64.2098 74.27 64.5998C74.6 64.6298 74.91 64.4198 74.99 64.0998C84.28 26.9798 75.35 9.75977 41.39 9.75977V9.76976Z" fill="#27272A"/>
</g>
<defs>
<clipPath id="clip0_117_206">
<rect width="82" height="96" fill="white"/>
</clipPath>
</defs>
</svg>
